<svg width="32" height="32" viewBox="0 0 32 32" fill="#fff" xmlns="http://www.w3.org/2000/svg">
<path d="M31.7164 13.1166C31.9067 14.1905 32.0016 15.2786 32 16.3685C32 21.2364 30.2249 25.3522 27.1359 28.1381H27.14C24.4386 30.584 20.7253 32 16.3224 32C11.9934 32 7.84174 30.3143 4.78071 27.3139C1.71967 24.3134 0 20.2439 0 16.0005C0 11.7572 1.71967 7.68768 4.78071 4.68719C7.84174 1.68671 11.9934 0.00105574 16.3224 0.00105574C20.3743 -0.0454594 24.2873 1.44667 27.242 4.16492L22.582 8.73277C20.8975 7.15877 18.6493 6.29683 16.3224 6.33285C12.0643 6.33285 8.44682 9.14875 7.15735 12.9406C6.47366 14.9276 6.47366 17.0795 7.15735 19.0664H7.16347C8.45906 22.8523 12.0704 25.6682 16.3285 25.6682C18.5279 25.6682 20.4172 25.1162 21.8822 24.1403H21.876C22.7267 23.5879 23.4543 22.8723 24.015 22.0367C24.5757 21.2011 24.9579 20.2628 25.1385 19.2784H16.3224V13.1186L31.7164 13.1166Z" fill="#fff"/>
</svg>
