<svg width="27" height="27" viewBox="0 0 27 27" fill="none" xmlns="http://www.w3.org/2000/svg">
<g clip-path="url(#clip0_12_19)">
<path d="M18.5625 10.125C18.5625 11.4677 18.0291 12.7553 17.0797 13.7047C16.1303 14.6541 14.8427 15.1875 13.5 15.1875C12.1573 15.1875 10.8697 14.6541 9.92027 13.7047C8.97087 12.7553 8.4375 11.4677 8.4375 10.125C8.4375 8.78234 8.97087 7.49467 9.92027 6.54527C10.8697 5.59587 12.1573 5.0625 13.5 5.0625C14.8427 5.0625 16.1303 5.59587 17.0797 6.54527C18.0291 7.49467 18.5625 8.78234 18.5625 10.125Z" fill="white"/>
<path fill-rule="evenodd" clip-rule="evenodd" d="M0 13.5C0 9.91958 1.42232 6.4858 3.95406 3.95406C6.4858 1.42232 9.91958 0 13.5 0C17.0804 0 20.5142 1.42232 23.0459 3.95406C25.5777 6.4858 27 9.91958 27 13.5C27 17.0804 25.5777 20.5142 23.0459 23.0459C20.5142 25.5777 17.0804 27 13.5 27C9.91958 27 6.4858 25.5777 3.95406 23.0459C1.42232 20.5142 0 17.0804 0 13.5ZM13.5 1.6875C11.2755 1.68762 9.09624 2.31586 7.21305 3.49992C5.32987 4.68398 3.81929 6.37573 2.85519 8.38045C1.89109 10.3852 1.51265 12.6214 1.76343 14.8317C2.01422 17.042 2.88403 19.1366 4.27275 20.8744C5.47088 18.9439 8.10844 16.875 13.5 16.875C18.8916 16.875 21.5274 18.9422 22.7273 20.8744C24.116 19.1366 24.9858 17.042 25.2366 14.8317C25.4873 12.6214 25.1089 10.3852 24.1448 8.38045C23.1807 6.37573 21.6701 4.68398 19.7869 3.49992C17.9038 2.31586 15.7245 1.68762 13.5 1.6875Z" fill="white"/>
</g>
<defs>
<clipPath id="clip0_12_19">
<rect width="27" height="27" fill="white"/>
</clipPath>
</defs>
</svg>
