<svg width="34" height="30" viewBox="0 0 34 30" fill="none" xmlns="http://www.w3.org/2000/svg">
<path d="M10.6803 30C23.511 30 30.5299 18.4552 30.5299 8.46115C30.5299 8.13809 30.5299 7.81041 30.5171 7.48735C31.8836 6.41315 33.063 5.08322 34 3.55987C32.7235 4.17103 31.3709 4.57383 29.9859 4.75519C31.4448 3.80825 32.5374 2.31833 33.0607 0.562339C31.6901 1.44412 30.1899 2.06312 28.6259 2.39224C27.5744 1.17621 26.183 0.370621 24.6672 0.100265C23.1514 -0.17009 21.5958 0.109874 20.2413 0.896792C18.8869 1.68371 17.8092 2.93366 17.1752 4.45304C16.5412 5.97242 16.3863 7.67642 16.7344 9.3011C13.9607 9.15008 11.2472 8.36762 8.76997 7.00448C6.2927 5.64134 4.10695 3.72796 2.3545 1.38845C1.46485 3.05701 1.19334 5.03072 1.59512 6.90877C1.9969 8.78682 3.04184 10.4284 4.51775 11.5002C3.41177 11.4594 2.33011 11.1369 1.36 10.5587V10.6626C1.36191 12.4105 1.91953 14.1041 2.93861 15.4571C3.95769 16.8102 5.37571 17.7396 6.953 18.0883C6.35431 18.2674 5.73586 18.3567 5.11488 18.3537C4.67709 18.3551 4.24018 18.3111 3.81012 18.2222C4.25592 19.7268 5.12396 21.0424 6.29265 21.9846C7.46134 22.9268 8.87216 23.4485 10.3275 23.4765C7.85518 25.5852 4.80123 26.7288 1.6575 26.7233C1.10356 26.7258 0.549999 26.6911 0 26.6194C3.19072 28.8284 6.89626 30.0013 10.6803 30Z" fill="#fff"/>
</svg>
